<svg height="512" viewBox="0 0 128 128" width="512" xmlns="http://www.w3.org/2000/svg"><g fill="#10c160"><path d="m79.329 108.27-17.435-12.565a.687.687 0 0 1 0-1.186l32.69-23.56a1.5 1.5 0 0 1 1.645 0l17.435 12.565a.687.687 0 0 1 0 1.186l-32.691 23.56a1.5 1.5 0 0 1 -1.644 0z"/><path d="m113.664 72.526-17.435-12.566a1.5 1.5 0 0 0 -1.645 0l-30.906 22.275-1.784 1.286a.686.686 0 0 0 0 1.185l17.435 12.566a1.5 1.5 0 0 0 1.645 0l32.69-23.561a.686.686 0 0 0 0-1.185z"/><path d="m79.329 100.922-17.435-12.565a.687.687 0 0 1 0-1.186l32.69-23.56a1.5 1.5 0 0 1 1.645 0l17.435 12.565a.687.687 0 0 1 0 1.186l-32.691 23.56a1.5 1.5 0 0 1 -1.644 0z"/><path d="m79.329 104.613-17.435-12.565a.687.687 0 0 1 0-1.186l32.69-23.562a1.5 1.5 0 0 1 1.645 0l17.435 12.565a.687.687 0 0 1 0 1.186l-32.691 23.56a1.5 1.5 0 0 1 -1.644.002z"/><path d="m79.329 93.46-17.435-12.566a.686.686 0 0 1 0-1.185l32.69-23.561a1.5 1.5 0 0 1 1.645 0l17.435 12.566a.686.686 0 0 1 0 1.185l-32.69 23.561a1.5 1.5 0 0 1 -1.645 0z"/></g><path d="m78.237 89.117-10.317-7.436v-3.024l25.205-18.165h4.2l10.316 7.435v3.024l-25.2 18.166z" fill="#16826d"/><ellipse cx="87.779" cy="74.804" fill="#0f6868" rx="7.075" ry="5.099"/><path d="m94.807 19.484a1.931 1.931 0 0 0 -1.538.755l-3.943 5.1a1.552 1.552 0 0 0 1.228 2.5h.923l-.005 5.081a1 1 0 0 0 1 1h4.628a1 1 0 0 0 1-.993l.033-5.089h.923a1.552 1.552 0 0 0 1.23-2.5l-3.943-5.1a1.93 1.93 0 0 0 -1.538-.755z" fill="#ff4a64"/><path d="m91.472 37.966v3.218a1 1 0 0 0 1 1h4.633a1 1 0 0 0 1-1v-3.218a1 1 0 0 0 -1-1h-4.633a1 1 0 0 0 -1 1z" fill="#ff4a64"/><path d="m91.491 46.31v1.01a2 2 0 0 0 2 2h2.632a2 2 0 0 0 2-2v-1.01a1 1 0 0 0 -1-1h-4.632a1 1 0 0 0 -1 1z" fill="#ff4a64"/><path d="m24.2 71.077v-.271a18.818 18.818 0 0 0 -5.169-12.762 18.857 18.857 0 1 1 27.477.166 18.271 18.271 0 0 0 -5.014 12.6v.313a27.552 27.552 0 0 1 -8.645 1.634 27.649 27.649 0 0 1 -8.649-1.68z" fill="#ffbc15"/><path d="m80.017 49a1 1 0 0 1 -.666-.254 32.469 32.469 0 0 0 -15.479-7.649 1 1 0 0 1 .379-1.963 34.459 34.459 0 0 1 16.432 8.12 1 1 0 0 1 -.666 1.746z" fill="#339eef"/><path d="m62.809 44.789a1 1 0 0 1 -.83-.439l-2.453-3.626a2.065 2.065 0 0 1 .552-2.866l3.622-2.458a1 1 0 0 1 1.121 1.657l-3.621 2.458 2.437 3.714a1 1 0 0 1 -.827 1.56z" fill="#339eef"/><path d="m47.754 101.047a1 1 0 0 1 -.3-.047 34.459 34.459 0 0 1 -15.366-9.992 1 1 0 1 1 1.5-1.324 32.455 32.455 0 0 0 14.474 9.41 1 1 0 0 1 -.3 1.953z" fill="#339eef"/><path d="m47.1 104.876a1 1 0 0 1 -.461-1.888l3.888-2.011-1.986-3.977a1 1 0 1 1 1.777-.92l2.012 3.889a2.062 2.062 0 0 1 -.885 2.781l-3.888 2.013a1.014 1.014 0 0 1 -.457.113z" fill="#339eef"/><path d="m82.387 90.107h-4.2a1.007 1.007 0 0 1 -.585-.188l-10.333-7.445a1 1 0 0 1 -.415-.812v-3.029a1 1 0 0 1 .415-.812l25.24-18.19a1.008 1.008 0 0 1 .585-.189h4.2a1.008 1.008 0 0 1 .585.189l10.331 7.445a1 1 0 0 1 .415.812v3.028a1 1 0 0 1 -.415.812l-25.238 18.191a1.007 1.007 0 0 1 -.585.188zm-3.879-2h3.555l24.564-17.7v-2l-9.654-6.957h-3.556l-24.563 17.7v2z" fill="#2f6361"/><path d="m80.1 102.2a2.416 2.416 0 0 1 -1.4-.43l-15.753-11.352a1 1 0 0 1 1.17-1.623l15.747 11.351a.551.551 0 0 0 .476 0l31.019-22.366a1 1 0 1 1 1.17 1.623l-31.022 22.366a2.431 2.431 0 0 1 -1.407.431z" fill="#219e54"/><path d="m80.1 105.855a2.416 2.416 0 0 1 -1.4-.43l-15.7-11.311a1 1 0 0 1 1.17-1.623l15.7 11.31a.548.548 0 0 0 .476 0l31.022-22.361a1 1 0 0 1 1.17 1.624l-31.031 22.36a2.431 2.431 0 0 1 -1.407.431z" fill="#219e54"/><path d="m80.1 98.544a2.416 2.416 0 0 1 -1.415-.442l-15.741-11.343a1 1 0 0 1 1.17-1.623l15.75 11.347a.516.516 0 0 0 .467 0l31.031-22.36a1 1 0 1 1 1.17 1.623l-31.025 22.36a2.39 2.39 0 0 1 -1.407.438z" fill="#219e54"/><path d="m80.1 94.7a2.419 2.419 0 0 1 -1.41-.434l-15.62-11.257a1 1 0 0 1 1.17-1.623l15.623 11.26a.527.527 0 0 0 .477 0l30.9-22.27a1 1 0 1 1 1.169 1.624l-30.9 22.27a2.424 2.424 0 0 1 -1.409.43z" fill="#219e54"/><path d="m32.851 73.4a1 1 0 0 1 -1-1v-8.836a1 1 0 1 1 2 0v8.836a1 1 0 0 1 -1 1z" fill="#fff"/><circle cx="32.85" cy="58.918" fill="#fff" r="1"/><path d="m32.851 56.739a1 1 0 0 1 -1-1v-1.734a5.8 5.8 0 0 1 2.835-4.879 3.456 3.456 0 1 0 -5.286-2.926 1 1 0 0 1 -2 0 5.462 5.462 0 0 1 5.45-5.46 5.457 5.457 0 0 1 2.9 10.079 3.82 3.82 0 0 0 -1.9 3.186v1.734a1 1 0 0 1 -.999 1z" fill="#fff"/><path d="m32.847 72.4a27.282 27.282 0 0 1 -8.64-1.433h-.007a8.651 8.651 0 1 0 17.294 0 27.329 27.329 0 0 1 -8.647 1.433z" fill="#e7eadf"/><path d="m41.494 70.961v.005h.001z" fill="#e7eadf"/></svg>